<?xml version="1.0" encoding="UTF-8" standalone="no"?>
<!-- Generator: Adobe Illustrator 16.0.0, SVG Export Plug-In . SVG Version: 6.00 Build 0)  -->

<svg
   xmlns:dc="http://purl.org/dc/elements/1.1/"
   xmlns:cc="http://creativecommons.org/ns#"
   xmlns:rdf="http://www.w3.org/1999/02/22-rdf-syntax-ns#"
   xmlns:svg="http://www.w3.org/2000/svg"
   xmlns="http://www.w3.org/2000/svg"
   xmlns:sodipodi="http://sodipodi.sourceforge.net/DTD/sodipodi-0.dtd"
   xmlns:inkscape="http://www.inkscape.org/namespaces/inkscape"
   version="1.1"
   id="Capa_1"
   x="0px"
   y="0px"
   width="498.455px"
   height="498.455px"
   viewBox="0 0 498.455 498.455"
   style="enable-background:new 0 0 498.455 498.455;"
   xml:space="preserve"
   sodipodi:docname="pop-out.svg"
   inkscape:version="0.92.3 (2405546, 2018-03-11)"><metadata
   id="metadata45"><rdf:RDF><cc:Work
       rdf:about=""><dc:format>image/svg+xml</dc:format><dc:type
         rdf:resource="http://purl.org/dc/dcmitype/StillImage" /><dc:title></dc:title></cc:Work></rdf:RDF></metadata><defs
   id="defs43" /><sodipodi:namedview
   pagecolor="#ffffff"
   bordercolor="#666666"
   borderopacity="1"
   objecttolerance="10"
   gridtolerance="10"
   guidetolerance="10"
   inkscape:pageopacity="0"
   inkscape:pageshadow="2"
   inkscape:window-width="1347"
   inkscape:window-height="739"
   id="namedview41"
   showgrid="false"
   inkscape:pagecheckerboard="true"
   inkscape:zoom="0.94692603"
   inkscape:cx="242.74676"
   inkscape:cy="252.04645"
   inkscape:window-x="2429"
   inkscape:window-y="219"
   inkscape:window-maximized="0"
   inkscape:current-layer="Capa_1" />
<g
   id="g8">
	<g
   id="g6">
		<path
   d="M492.201,111.423L389.768,46.398c-8.338-5.278-15.146-1.53-15.146,8.338v23.333    c-85.223,0.459-154.225,69.691-154.225,155.065c0,14.917,2.142,29.376,6.12,43.07c18.513-64.413,77.8-111.614,148.105-111.996    v23.333c0,9.945,6.809,13.617,15.146,8.338l102.434-65.025C500.615,125.346,500.463,116.702,492.201,111.423z"
   id="path2"
   style="fill:#ffffff" />
		<path
   d="M376.533,379.173c0,11.858-9.717,21.497-21.496,21.497H75.276c-11.934,0-21.497-9.716-21.497-21.497V207.048    c0-11.857,9.715-21.497,21.497-21.497h136.399c5.891-19.813,14.382-38.021,25.475-53.779H21.496    C9.639,131.772,0,141.335,0,153.269v279.685c0,11.857,9.715,21.496,21.496,21.496h387.32c11.857,0,21.496-9.562,21.496-21.496    V189.683l-53.779,34.196V379.173L376.533,379.173z"
   id="path4"
   style="fill:#ffffff" />
	</g>
</g>
<g
   id="g10">
</g>
<g
   id="g12">
</g>
<g
   id="g14">
</g>
<g
   id="g16">
</g>
<g
   id="g18">
</g>
<g
   id="g20">
</g>
<g
   id="g22">
</g>
<g
   id="g24">
</g>
<g
   id="g26">
</g>
<g
   id="g28">
</g>
<g
   id="g30">
</g>
<g
   id="g32">
</g>
<g
   id="g34">
</g>
<g
   id="g36">
</g>
<g
   id="g38">
</g>
<path
   style="opacity:1;vector-effect:none;fill:#ffffff;fill-opacity:1;stroke:#ffffff;stroke-width:2.11542344;stroke-linecap:butt;stroke-linejoin:miter;stroke-miterlimit:4;stroke-dasharray:none;stroke-dashoffset:0;stroke-opacity:1"
   d="M 6.7352539,445.91291 1.2672584,439.41458 V 292.62339 145.8322 l 6.1738232,-6.17382 6.1738234,-6.17382 H 123.78245 c 60.59214,0 109.8129,0.71283 109.37946,1.58407 -5.25539,10.56349 -18.53478,38.81474 -20.35207,43.298 l -2.35437,5.80826 -69.21648,0.003 c -78.387375,0.004 -81.674109,0.56513 -86.522061,14.78131 -3.317224,9.72745 -3.764854,174.7664 -0.505843,186.50246 1.494972,5.38357 4.449608,9.39157 8.964634,12.16064 6.537759,4.0096 11.047886,4.11449 154.22743,3.58629 l 147.49274,-0.54409 6.16234,-6.89765 6.16237,-6.89762 v -81.07208 -81.07208 l 25.28575,-16.05108 c 13.90717,-8.8281 25.78772,-16.05109 26.40122,-16.05109 0.6135,0 1.11546,54.20583 1.11546,120.45739 0,128.41736 -0.24519,131.69792 -10.24283,137.04849 -2.96912,1.58904 -65.50706,2.2821 -205.92054,2.2821 H 12.20325 Z"
   id="path852"
   inkscape:connector-curvature="0" /><path
   style="opacity:1;vector-effect:none;fill:#ffffff;fill-opacity:1;stroke:#ffffff;stroke-width:2.11542344;stroke-linecap:butt;stroke-linejoin:miter;stroke-miterlimit:4;stroke-dasharray:none;stroke-dashoffset:0;stroke-opacity:1"
   d="m 224.4349,264.15983 c -3.28573,-18.2732 -3.7685,-35.9147 -1.40854,-51.47162 C 233.70724,142.27928 286.28434,90.35577 356.90189,80.476867 L 375.1085,77.929889 V 64.925008 c 0,-16.273213 3.47628,-22.129696 11.07943,-18.665469 2.86324,1.304579 28.5741,17.214644 57.13525,35.3557 51.30997,32.590331 57.59523,37.945831 52.18471,44.465111 -4.0487,4.87839 -108.87717,70.76713 -112.58994,70.76713 -5.27638,0 -7.80945,-6.88557 -7.80945,-21.22818 v -13.05749 l -14.07112,1.50689 c -55.97329,5.99423 -101.96256,38.2195 -126.26368,88.47459 -8.91255,18.43129 -9.07967,18.61905 -10.3388,11.61654 z"
   id="path854"
   inkscape:connector-curvature="0" /></svg>